# xmcd CD database file
#
# Track frame offsets:
#	150
#	19587
#	29452
#	40212
#	71880
#	84665
#	110090
#	131755
#	158797
#	177235
#	195537
#	218465
#	232832
#	251320
#	266365
#	283357
#	306892
#
# Disc length: 4394 seconds
#
# Revision: 0
# Processed by: cddbd v1.5.2PL0 Copyright (c) Steve Scherf et al.
# Submitted via: CDex 1.70beta2
#
DISCID=ec112811
DTITLE=Shirley Horn and Dizzy Gillespie - Where Are You Going/The Real Thing
DYEAR=1900
DGENRE=Jazz
TTITLE0=Where Are You Going (Shirley Horn)
TTITLE1=Something Happens To Me (Shirley Horn)
TTITLE2=Come On Home (Shirley Horn)
TTITLE3=Do It Again (Shirley Horn)
TTITLE4=The Eagle And Me (Shirley Horn)
TTITLE5=Taste Of Honey (Shirley Horn)
TTITLE6=L.A. Breakdown (Shirley Horn)
TTITLE7=Consequences Of A Drug Addict Role (Shirley Horn)
TTITLE8=N'Bani (Dizzy Gillespie)
TTITLE9=Matrix (Dizzy Gillespie)
TTITLE10=Alligator (Dizzy Gillespie)
TTITLE11=Closer (Dizzy Gillespie)
TTITLE12=Soul Kiss (Dizzy Gillespie)
TTITLE13=High On A Cloud (Dizzy Gillespie)
TTITLE14=Summertime (Dizzy Gillespie)
TTITLE15=Let Me Outta Here (Dizzy Gillespie)
TTITLE16=Ding-A-Ling (Dizzy Gillespie)
EXTD=
EXTT0=
EXTT1=
EXTT2=
EXTT3=
EXTT4=
EXTT5=
EXTT6=
EXTT7=
EXTT8=
EXTT9=
EXTT10=
EXTT11=
EXTT12=
EXTT13=
EXTT14=
EXTT15=
EXTT16=
PLAYORDER=
